<?xml version="1.0" ?><!-- License: CC Attribution. Made by Rengised: https://twitter.com/Rengised -->
<svg width="500" height="500" viewBox="0 0 24 24" fill-opacity="1" xmlns="http://www.w3.org/2000/svg">
<g fill-rule="evenodd" fill="#fef9ff">
    <path d="m 0 0 h500 v500 h-500 v0500 z m 6.111 18.9943 h -1.3226 c -0.5961 0.0531 -1.7884 -0.2415 -1.7884 -1.8452 c 0 -1.6037 0 -7.1834 0 -9.4082 c 0 -2.2249 2.2994 -1.9819 3.4607 -1.1163 l 5.5276 4.0321 l 5.644 -4.1687 c 1.347 -1.0707 3.3677 -0.3189 3.3677 1.9591 c 0 3.3714 0 6.9479 0 8.3147 c 0 0.8884 -0.2369 2.2325 -2.0207 2.2325 h -2.0903 v -6.7885 l -4.9007 3.6448 l -4.8773 -3.6448 v 4.5128 v 2.2814 h -1.111"/>
    </g>
</svg>